<svg id="selectron" xmlns="http://www.w3.org/2000/svg" viewBox="0 0 26.05 26.05">
  <defs>
    <style>
      .cls-1 {
        fill: none;
        stroke: #b1b1b1;
        stroke-miterlimit: 10;
        stroke-width: 0.5px;
      }

      .cls-2 {
        fill: #b1b1b1;
      }
    </style>
  </defs>
  <title>selectron1.1cores</title>
  <rect id="frame" class="cls-1" x="0.25" y="0.25" width="25.55" height="25.55"/>
  <circle v-if="core.orb" class="Selectron-core" cx="13.02" cy="13.02" r="2.4"/>
  <path v-if="core.cursor" class="Selectron-core" d="M189.89,28.54l2-2a.14.14,0,0,1,.1-.05h2.82a.15.15,0,0,0,.11-.25l-5-5a.15.15,0,0,0-.26.11v7.1A.14.14,0,0,0,189.89,28.54Z" transform="translate(-178.52 -11.87)"/>
  <path v-if="core.find" class="Selectron-core" d="M194.19,22.24a2.12,2.12,0,0,0-3.28,2.66L189,26.84a.45.45,0,0,0,.31.76.5.5,0,0,0,.32-.13l1.94-1.95a2,2,0,0,0,1.14.35,2.13,2.13,0,0,0,1.51-3.63Zm-.63,2.38a1.24,1.24,0,0,1-1.75-1.75,1.27,1.27,0,0,1,1.75,0A1.24,1.24,0,0,1,193.56,24.62Z" transform="translate(-178.52 -11.87)"/>
</svg>
